<?xml version="1.0" encoding="UTF-8" standalone="no"?>
<svg
   width="89.337891"
   zoomAndPan="magnify"
   viewBox="0 0 67.003418 86.355471"
   height="115.14063"
   preserveAspectRatio="xMidYMid"
   version="1.0"
   id="svg14"
   sodipodi:docname="Untitled design.svg"
   inkscape:version="1.3.2 (091e20ef0f, 2023-11-25, custom)"
   xmlns:inkscape="http://www.inkscape.org/namespaces/inkscape"
   xmlns:sodipodi="http://sodipodi.sourceforge.net/DTD/sodipodi-0.dtd"
   xmlns="http://www.w3.org/2000/svg"
   xmlns:svg="http://www.w3.org/2000/svg">
  <sodipodi:namedview
     id="namedview14"
     pagecolor="#ffffff"
     bordercolor="#000000"
     borderopacity="0.25"
     inkscape:showpageshadow="2"
     inkscape:pageopacity="0.0"
     inkscape:pagecheckerboard="0"
     inkscape:deskcolor="#d1d1d1"
     inkscape:zoom="4"
     inkscape:cx="-13.25"
     inkscape:cy="56.125"
     inkscape:window-width="1920"
     inkscape:window-height="1004"
     inkscape:window-x="0"
     inkscape:window-y="48"
     inkscape:window-maximized="1"
     inkscape:current-layer="svg14" />
  <defs
     id="defs5" />
  <path
     d="M 2.9560547,1.3610243e-8 C 1.295906,1.3610243e-8 0,1.2973718 0,2.9575195 V 83.402342 c 0,1.186673 0.67155228,2.179947 1.659668,2.652832 0.3909997,0.187122 0.8257098,0.300293 1.2963867,0.300293 H 64.045896 c 0.470677,0 0.906852,-0.113171 1.297852,-0.300293 0.564476,-0.270143 1.018051,-0.711367 1.308105,-1.262695 0.217687,-0.413773 0.351563,-0.881368 0.351563,-1.390137 V 2.9575195 c 0,-0.5099687 -0.133876,-0.9787175 -0.351563,-1.3930663 C 66.160885,0.62993343 65.196077,1.3610243e-8 64.045896,1.3610243e-8 Z M 2.9560547,0.46875 H 64.045896 c 1.382807,0 2.48877,1.1059644 2.48877,2.4887695 V 26.289551 H 0.46874999 V 2.9575195 C 0.46874999,1.5747144 1.5732486,0.46875 2.9560547,0.46875 Z M 0.46874999,26.753906 H 66.534666 v 9.222656 H 0.46874999 Z m 0,9.688476 H 66.534666 v 46.95996 c 0,1.382806 -1.105963,2.484375 -2.48877,2.484375 H 2.9560547 c -1.3828061,0 -2.48730471,-1.101569 -2.48730471,-2.484375 z"
     id="path43"
     style="fill:#000000;fill-opacity:1;stroke:none" />
  <path
     d="m 6.2812499,4.059082 c -1.8515602,0 -3.4262695,1.5742198 -3.4262695,3.4218749 V 21.039551 c 0,1.847655 1.5747093,3.41748 3.4262695,3.41748 H 29.667479 c 1.851561,0 3.42627,-1.569825 3.42627,-3.41748 V 7.4809569 c 0,-1.8476551 -1.574709,-3.4218749 -3.42627,-3.4218749 z m 0,0.46875 H 29.667479 c 1.664062,0 2.960449,1.2929696 2.960449,2.9531249 V 21.039551 c 0,1.656248 -1.296387,2.953125 -2.960449,2.953125 H 6.2812499 c -1.6640603,0 -2.961914,-1.296877 -2.961914,-2.953125 V 7.4809569 c 0,-1.6601553 1.2978537,-2.9531249 2.961914,-2.9531249 z"
     style="fill:#000000;fill-opacity:1;stroke:none;stroke-width:2"
     id="path45" />
  <path
     d="m 37.331542,4.059082 c -1.847656,0 -3.421875,1.5742198 -3.421875,3.4218749 V 21.039551 c 0,1.847655 1.574219,3.41748 3.421875,3.41748 h 23.390624 c 1.937498,0 3.410156,-1.569825 3.410156,-3.41748 V 7.4809569 c 0,-1.8476551 -1.574709,-3.4218749 -3.426269,-3.4218749 z m 0,0.46875 h 23.390624 c 1.660155,0 2.960449,1.2929696 2.960449,2.9531249 V 21.039551 c 0,1.656248 -1.300294,2.953125 -2.960449,2.953125 H 37.331542 c -1.660156,0 -2.95752,-1.296877 -2.95752,-2.953125 V 7.4809569 c 0,-1.6601553 1.297364,-2.9531249 2.95752,-2.9531249 z"
     style="fill:#000000;fill-opacity:1;stroke:none;stroke-width:2"
     id="path44" />
</svg>
