<svg
      xmlns="http://www.w3.org/2000/svg"
      version="1.1"
      viewBox="0 0 841.9 595.3"
      xmlSpace="preserve"
    >
      <g fill="#058844" fillOpacity="1" transform="translate(2472.885 23.387)">
        <path
          strokeWidth="0.912"
          d="M-2092.824 47.535c-112.987 17.578-198.654 101.75-198.654 203.01 0 43.276 15.67 83.423 42.404 116.605-3.258-26.2-5.153-49.846-5.153-68.687 0-97.727 86.949-178.951 194.202-178.951 2.387 0 4.752.086 7.119.164z"
          opacity="1"
        ></path>
        <path
          strokeWidth="0.963"
          d="M-1831.554 369.723c43.55-112.529 11.83-235.226-80.708-288.653-39.548-22.833-84.505-29.695-128.934-22.771 25.662 10.846 48.27 21.59 65.489 31.532 89.308 51.562 117.66 173.875 61.072 271.89-1.26 2.18-2.586 4.297-3.906 6.418z"
          opacity="1"
        ></path>
        <circle
          cx="-2119.211"
          cy="190.239"
          r="44.153"
          strokeWidth="1.012"
          opacity="1"
        ></circle>
        <path
          strokeWidth="1.224"
          d="M-1961.773 232.938a53.427 53.427 0 0114.757 36.046l22.045-5.937-20.27-15.979 1.462-23.922z"
          opacity="1"
        ></path>
        <circle
          cx="-2000.422"
          cy="269.802"
          r="43.169"
          strokeWidth="0.989"
          opacity="1"
        ></circle>
        <circle
          cx="-2118.227"
          cy="190.239"
          r="43.169"
          strokeWidth="0.989"
          opacity="1"
        ></circle>
        <path
          strokeWidth="5.844"
          d="M-2285.473 396.795a255.033 255.033 0 0051.141 65.26h343.16a255.033 255.033 0 0051.14-65.26z"
          opacity="1"
        ></path>
        <path
          strokeWidth="1.022"
          d="M-2184.182 235.921c69.108 34.783 104.805 2.725 116.196 7.791 18.79 8.358-22.466 45.333 34.166 79.62 42.107 25.494 77.584-14.823 84.73-7.677 1.537 1.538 7.245 15.59-20.723 28.35-37.468 17.094-52.79 4.079-53.374 18.682-.784 19.623 70.992-.11 70.992-.11v21.629h-231.987v-78.572s101.251 80.374 123.894 51.972c8.158-10.234-13.654-12.55-34.656-25.533-37.284-23.046-89.238-55.815-89.238-55.815z"
          opacity="1"
        ></path>
      </g>
    </svg>