<?xml version="1.0" encoding="UTF-8" standalone="no"?>
<svg
   version="1.1"
   viewBox="0 0 841.9 595.3"
   xmlSpace="preserve"
   id="svg1"
   sodipodi:docname="logocopiado.svg"
   xml:space="preserve"
   inkscape:version="1.3.2 (091e20ef0f, 2023-11-25, custom)"
   inkscape:export-filename="logocopiado.png"
   inkscape:export-xdpi="161.26323"
   inkscape:export-ydpi="161.26323"
   xmlns:inkscape="http://www.inkscape.org/namespaces/inkscape"
   xmlns:sodipodi="http://sodipodi.sourceforge.net/DTD/sodipodi-0.dtd"
   xmlns="http://www.w3.org/2000/svg"
   xmlns:svg="http://www.w3.org/2000/svg"><defs
     id="defs1" /><sodipodi:namedview
     id="namedview1"
     pagecolor="#ffffff"
     bordercolor="#000000"
     borderopacity="0.25"
     inkscape:showpageshadow="2"
     inkscape:pageopacity="0.0"
     inkscape:pagecheckerboard="0"
     inkscape:deskcolor="#d1d1d1"
     inkscape:zoom="0.96806995"
     inkscape:cx="336.75252"
     inkscape:cy="242.75105"
     inkscape:window-width="1745"
     inkscape:window-height="916"
     inkscape:window-x="0"
     inkscape:window-y="0"
     inkscape:window-maximized="1"
     inkscape:current-layer="svg1" /><g
     id="g13"
     transform="translate(2472.8846,23.387104)"
     style="stroke:none;stroke-opacity:1;fill:#ffffff;fill-opacity:1"><path
       id="path5"
       style="opacity:1;fill:#ffffff;fill-opacity:1;stroke-width:0.912148;stroke:none;stroke-opacity:1"
       d="m -2092.8242,47.535156 c -112.9869,17.578048 -198.6543,101.749414 -198.6543,203.009764 0,43.27587 15.6703,83.42342 42.4043,116.60547 -3.2582,-26.20028 -5.1524,-49.84627 -5.1524,-68.6875 0,-97.72714 86.9484,-178.95117 194.2012,-178.95117 2.3875,0 4.7525,0.0862 7.1192,0.16406 z" /><path
       id="path8"
       style="opacity:1;fill:#ffffff;fill-opacity:1;stroke-width:0.962527;stroke:none;stroke-opacity:1"
       d="m -1831.5536,369.72262 c 43.5498,-112.52827 11.8287,-235.2261 -80.7088,-288.652618 -39.5479,-22.833014 -84.505,-29.695072 -128.9339,-22.771387 25.6624,10.846142 48.2709,21.591102 65.4891,31.532025 89.3086,51.56235 117.6604,173.87576 61.0721,271.88944 -1.2596,2.18184 -2.5863,4.29763 -3.906,6.41937 z" /><circle
       style="opacity:1;fill:#ffffff;fill-opacity:1;stroke-width:1.01168;stroke:none;stroke-opacity:1"
       id="circle8"
       cx="-2119.2114"
       cy="190.23906"
       r="44.15316" /><path
       style="opacity:1;fill:#ffffff;fill-opacity:1;stroke-width:1.22416;stroke:none;stroke-opacity:1"
       d="m -1961.7734,232.9375 a 53.426514,53.426514 0 0 1 14.7578,36.04688 l 22.0449,-5.9375 -20.2695,-15.97852 1.4609,-23.92188 z"
       id="path9" /><circle
       style="opacity:1;fill:#ffffff;fill-opacity:1;stroke-width:0.989127;stroke:none;stroke-opacity:1"
       id="circle11"
       cx="-2000.4225"
       cy="269.80228"
       r="43.16885" /><circle
       style="opacity:1;fill:#ffffff;fill-opacity:1;stroke-width:0.989127;stroke:none;stroke-opacity:1"
       id="circle12"
       cx="-2118.2271"
       cy="190.23906"
       r="43.16885" /><path
       id="path12"
       style="opacity:1;fill:#ffffff;fill-opacity:1;stroke-width:5.84358;stroke:none;stroke-opacity:1"
       d="m -2285.4727,396.79492 a 255.0332,255.0332 0 0 0 51.1407,65.25977 h 343.1601 a 255.0332,255.0332 0 0 0 51.1407,-65.25977 z" /><path
       id="path13"
       style="opacity:1;fill:#ffffff;fill-opacity:1;stroke-width:1.02219;stroke:none;stroke-opacity:1"
       d="m -2184.1818,235.9211 c 69.1079,34.78324 104.8046,2.72459 116.196,7.79134 18.7899,8.35752 -22.466,45.33284 34.1656,79.6203 42.1073,25.4937 77.584,-14.82337 84.7298,-7.67761 1.5377,1.53769 7.2458,15.58932 -20.723,28.34999 -37.4672,17.09424 -52.7905,4.07858 -53.3738,18.6819 -0.7838,19.62287 70.9925,-0.10991 70.9925,-0.10991 v 21.62876 h -231.9871 v -78.57196 c 0,0 101.2508,80.37427 123.8934,51.97196 8.1588,-10.23421 -13.6538,-12.55043 -34.656,-25.53258 -37.2838,-23.04633 -89.2374,-55.81484 -89.2374,-55.81484 z"
       sodipodi:nodetypes="csssssccccsscc" /></g></svg>
